<svg version="1.1" xmlns="http://www.w3.org/2000/svg" xmlns:xlink="http://www.w3.org/1999/xlink" width="800px" height="800px" viewBox="0,0,256,256"><g fill="none" fill-rule="nonzero" stroke="none" stroke-width="1" stroke-linecap="butt" stroke-linejoin="miter" stroke-miterlimit="10" stroke-dasharray="" stroke-dashoffset="0" font-family="none" font-weight="none" font-size="none" text-anchor="none" style="mix-blend-mode: normal"><g transform="scale(0.87876,0.87876)"><g><path d="M145.659,0c80.45,0 145.66,65.219 145.66,145.66c0,80.45 -65.21,145.659 -145.66,145.659c-80.45,0 -145.659,-65.21 -145.659,-145.659c0,-80.441 65.21,-145.66 145.659,-145.66z" fill="#ebebeb"></path><path d="M163.394,100.277h18.772v-27.73h-22.067v0.1c-26.738,0.947 -32.218,15.977 -32.701,31.763h-0.055v13.847h-18.207v27.156h18.207v72.793h27.439v-72.793h22.477l4.342,-27.156h-26.81v-8.366c0,-5.335 3.55,-9.614 8.603,-9.614z" fill="#1c1c1c"></path></g></g></g></svg>