<svg version="1.1" xmlns="http://www.w3.org/2000/svg" xmlns:xlink="http://www.w3.org/1999/xlink" width="800px" height="800px" viewBox="0,0,256,256"><g fill="none" fill-rule="nonzero" stroke="none" stroke-width="1" stroke-linecap="butt" stroke-linejoin="miter" stroke-miterlimit="10" stroke-dasharray="" stroke-dashoffset="0" font-family="none" font-weight="none" font-size="none" text-anchor="none" style="mix-blend-mode: normal"><g transform="translate(-4.47988,0.00009) scale(0.09031,0.09031)"><circle cx="1466.93" cy="1417.324" r="1417.324" fill="#ededed"></circle><path d="M1892.128,726.379h-850.395c-147.639,0 -265.749,118.11 -265.749,265.749v850.394c0,147.639 118.11,265.748 265.749,265.748h850.395c147.638,0 265.749,-118.109 265.749,-265.748v-850.395c0,-147.638 -118.112,-265.748 -265.749,-265.748zM1968.9,885.828h29.527v236.22h-236.221v-236.22zM1272.049,1275.593c41.338,-59.056 118.11,-100.395 194.882,-100.395c76.772,0 153.544,41.339 194.882,100.395c29.527,41.338 47.244,88.582 47.244,141.732c0,135.826 -112.205,242.126 -242.126,242.126c-129.922,0 -242.126,-106.299 -242.126,-242.126c-0.001,-53.15 17.716,-100.394 47.244,-141.732zM2022.05,1842.522c0,70.867 -59.056,129.922 -129.922,129.922h-850.395c-70.866,0 -129.922,-59.055 -129.922,-129.922v-566.929h206.693c-17.717,41.338 -29.527,94.488 -29.527,141.732c0,206.693 171.26,377.953 377.953,377.953c206.693,0 377.953,-171.26 377.953,-377.953c0,-47.244 -11.812,-100.395 -29.527,-141.732h206.692z" fill="#1c1c1c"></path></g></g></svg>