<svg width="237" height="35" viewBox="0 0 237 35" fill="none" xmlns="http://www.w3.org/2000/svg">
<g clip-path="url(#clip0_3598_21)">
<mask id="mask0_3598_21" style="mask-type:luminance" maskUnits="userSpaceOnUse" x="0" y="0" width="237" height="35">
<path d="M237 0H0V35H237V0Z" fill="white"/>
</mask>
<g mask="url(#mask0_3598_21)">
<path d="M26.2224 28.3391H11.8217L9.14587 35.0031H-0.681641L14.3515 0.703125H23.8385L38.9203 35.0031H28.8982L26.2224 28.3391ZM23.4006 21.1851L19.022 10.2091L14.6434 21.1851H23.4006ZM61.4035 25.8891H56.1492V35.0031H46.5163V0.703125H62.0846C65.1659 0.703125 67.8417 1.22579 70.1119 2.27113C72.3825 3.28379 74.1339 4.7538 75.3662 6.68113C76.5991 8.57582 77.2149 10.8134 77.2149 13.3941C77.2149 15.8768 76.6311 18.0491 75.4635 19.9111C74.3285 21.7404 72.6904 23.1778 70.5497 24.2231L77.896 35.0031H67.5822L61.4035 25.8891ZM67.4849 13.3941C67.4849 11.7934 66.9822 10.5521 65.9767 9.67013C64.9713 8.78813 63.4793 8.34713 61.5008 8.34713H56.1492V18.3921H61.5008C63.4793 18.3921 64.9713 17.9674 65.9767 17.1181C66.9822 16.2361 67.4849 14.9948 67.4849 13.3941ZM94.1684 8.39613H83.7084V0.703125H114.213V8.39613H103.801V35.0031H94.1684V8.39613Z" fill="#DFA542"/>
<path d="M236.665 0.703125V35.0031H228.735L213.702 16.7261V35.0031H204.264V0.703125H212.194L227.227 18.9801V0.703125H236.665Z" fill="#DFA542"/>
<path d="M176.532 0.351562H141.782C132.378 0.351562 124.754 8.02988 124.754 17.5016C124.754 26.9732 132.378 34.6516 141.782 34.6516H176.532C185.937 34.6516 193.56 26.9732 193.56 17.5016C193.56 8.02988 185.937 0.351562 176.532 0.351562Z" fill="#DFA542" stroke="#DFA542"/>
<path d="M193.214 17.5031C193.214 8.22474 185.746 0.703125 176.534 0.703125C167.322 0.703125 159.854 8.22474 159.854 17.5031C159.854 26.7815 167.322 34.3031 176.534 34.3031C185.746 34.3031 193.214 26.7815 193.214 17.5031Z" fill="#1C1C1C"/>
</g>
</g>
<defs>
<clipPath id="clip0_3598_21">
<rect width="237" height="35" fill="white"/>
</clipPath>
</defs>
</svg>
